<svg width="43" height="36" fill="none" xmlns="http://www.w3.org/2000/svg"><path fill-rule="evenodd" clip-rule="evenodd" d="M22.357 34.492c-.316-.194-.941-.577-1.194-.828a13.494 13.494 0 0 1-4.256-5.632 40.94 40.94 0 0 1-2.681.089c-3.946 0-7.665-.553-10.473-1.557-1.401-.501-2.511-1.098-3.3-1.763v6.133c0 1.032 1.41 2.153 3.773 2.997 2.66.951 6.212 1.476 10 1.476 2.947 0 5.769-.321 8.13-.914ZM.452 22.244V16.11c.79.665 1.9 1.263 3.3 1.763 2.809 1.004 6.528 1.557 10.473 1.557 3.55 0 6.888-.442 9.563-1.257l-.421 1.679a.698.698 0 0 0 .042.46 12.066 12.066 0 0 1-6.142 6.286c-.994.077-2.016.117-3.042.117-3.788 0-7.34-.524-10-1.475-2.362-.845-3.773-1.965-3.773-2.998Zm4.181 7.482h.001c.869.29.443 1.626-.44 1.335-.707-.23-1.397-.51-2.064-.837-.849-.4-.21-1.705.627-1.256.606.297 1.233.55 1.876.758ZM2.13 21.535c.667.328 1.357.607 2.064.835.866.295 1.328-1.04.44-1.333-.642-.208-1.269-.461-1.875-.758-.829-.421-1.45.845-.628 1.256Z" fill="#336AEA"/><path fill-rule="evenodd" clip-rule="evenodd" d="M.452 13.554c0 1.032 1.41 2.152 3.773 2.997 2.66.951 6.212 1.476 10 1.476 3.743 0 7.354-.534 9.981-1.47a3.836 3.836 0 0 1 3.732-2.624c.04-.122.06-.25.06-.379V7.427c-.789.665-1.899 1.262-3.3 1.763-3.232 1.156-7.05 1.557-10.473 1.557-3.422 0-7.241-.402-10.472-1.557C2.35 8.69 1.24 8.092.452 7.427v6.127Zm2.306-1.967c.606.297 1.233.55 1.876.758.87.29.444 1.627-.441 1.335a15.47 15.47 0 0 1-2.064-.837c-.833-.416-.203-1.67.629-1.256Z" fill="#336AEA"/><path fill-rule="evenodd" clip-rule="evenodd" d="M.452 4.863c.006 1.03 1.416 2.148 3.773 2.99 2.66.952 6.212 1.475 10 1.475 3.788 0 7.34-.523 10-1.474 2.359-.844 3.768-1.962 3.773-2.993-.007-1.026-1.42-2.142-3.781-2.987C21.55.921 18.003.397 14.225.397c-3.778 0-7.326.525-9.991 1.478C1.87 2.719.457 3.836.452 4.863ZM34.05 15.373l1.865.47 1.892-7.118c.01-.047-1.682-.52-1.823-.52-.063 0-1.769 6.544-1.935 7.168ZM40.72 18.497 28.426 15.41a2.43 2.43 0 0 0-2.936 1.757l-.59 2.347 16.987 4.269.59-2.348a2.43 2.43 0 0 0-1.758-2.937ZM24.682 20.908a13.46 13.46 0 0 1-6.404 6.766 12.113 12.113 0 0 0 3.478 4.668 12.046 12.046 0 0 0 3.816-2.871.702.702 0 0 1 1.05.934 13.437 13.437 0 0 1-3.586 2.858c.712.444 3.449 1.846 4.187 1.52a12.121 12.121 0 0 0 5.264-4.436c.504-.762 1.688-.006 1.173.774a13.5 13.5 0 0 1-4.09 4 12.169 12.169 0 0 0 11.904-9.994l-16.792-4.22Zm2.57 8.218a.699.699 0 0 1-.702-.702.76.76 0 0 1 .733-.75.702.702 0 0 1 .702.703.76.76 0 0 1-.732.75Z" fill="#336AEA"/></svg>